<?xml version="1.0" encoding="utf-8"?>
<!-- Generator: Adobe Illustrator 19.2.1, SVG Export Plug-In . SVG Version: 6.00 Build 0)  -->
<svg version="1.1" id="Layer_1" xmlns="http://www.w3.org/2000/svg" xmlns:xlink="http://www.w3.org/1999/xlink" x="0px" y="0px"
	 viewBox="0 0 600 600" style="enable-background:new 0 0 600 600;" xml:space="preserve">
<style type="text/css">
	.st0{fill:#65BC46;}
	.st1{fill:#FFFFFF;}
</style>
<g>
	<rect y="0" class="st0" width="600" height="600"/>
	<g>
		<path class="st1" d="M146.6,271c0,21.8,12,42,30.8,52.6c-1.7,5.5-2.6,11.1-2.6,16.8c0,30.9,25.2,56.1,56.1,56.1
			c14.9,0,29-5.9,39.4-16.3c1.5,27.3-3.3,61.2-20.4,102.1h81.5c0,0-23.8-41.8-26.6-101.1c11.3,10.8,26.3,17,42.1,17
			c29.6,0,54.7-21.3,59.7-50.1c14.5-3.7,25-16.9,25-32c0-5.7-1.5-11.3-4.4-16.3c16.8-14.6,26.3-35.2,26.3-57.3
			c0-42.2-34.9-76.5-77.7-76.5c-4.2,0-8.4,0.3-12.6,1c-17.2-30.7-49.9-49.7-86.4-49.7c-54.1,0-98.1,42.2-98.1,94.1
			c0,1.9,0.1,3.9,0.2,5.9C159.2,228,146.6,248.6,146.6,271z M264,472.8c27.6-74.5,15.2-125.5-0.1-155.3l11.8,5.5l12.5,5.8l1.2-13.7
			l4.8-55.5l5.4,21.7l2.7,10.9l10.4-4.5l28-12.1c-21.8,25.5-45.8,61-45.8,94c0,46.3,12.9,83.6,21.2,103H264z M185.9,224.8l3.1-1.4
			l-0.3-3.4c-0.3-2.8-0.4-5.6-0.4-8.3c0-46.6,39.7-84.5,88.5-84.5c34.1,0,64.5,18.2,79.5,47.6l1.7,3.3l3.6-0.8
			c4.7-1,9.5-1.5,14.2-1.5c37.6,0,68.1,30,68.1,66.9c0,20.6-9.5,39.7-26,52.5l-3.8,2.9l2.9,3.8c3.3,4.2,5,9.2,5,14.3
			c0,11.6-8.7,21.6-20.3,23.2l-3.7,0.5l-0.4,3.7c-3,25.7-24.8,45.1-50.7,45.1c-14.9,0-28.9-6.5-38.7-17.7l-3.1-3.6l-0.4,0.4
			c1.8-55,77-120,77-120l-72.8,31.3l-19.4-77.4l-9.7,112.6l-45.8-21.5c0,0,28.3,23.9,35.2,74.5l-2.9,3.3
			c-8.9,10.3-21.7,16.3-35.3,16.3c-25.6,0-46.5-20.9-46.5-46.5c0-5.9,1.1-11.8,3.4-17.4l1.7-4.2l-4.1-1.9
			c-17.7-8.4-29.2-26.4-29.2-45.9C156.2,251.2,167.9,233.1,185.9,224.8z"/>
	</g>
</g>
</svg>
