<?xml version="1.0" encoding="utf-8"?>
<!-- Generator: Adobe Illustrator 19.2.1, SVG Export Plug-In . SVG Version: 6.00 Build 0)  -->
<svg version="1.1" id="Layer_1" xmlns="http://www.w3.org/2000/svg" xmlns:xlink="http://www.w3.org/1999/xlink" x="0px" y="0px"
	 viewBox="0 0 600 600" style="enable-background:new 0 0 600 600;" xml:space="preserve">
<style type="text/css">
	.st0{fill:#85C441;}
	.st1{fill:#FFFFFF;}
</style>
<g>
	<rect y="0" class="st0" width="600" height="600"/>
	<g>
		<rect x="311.7" y="251.8" class="st1" width="9.6" height="11"/>
		<path class="st1" d="M397.1,356.7c-2-23.6-24.7-44.8-33.6-52.3c4.3-7,6.8-14.6,7.2-22.8c1.2-23.7-14.8-44-21.3-50.5
			c-0.8-82.8-44.7-113.4-46.6-114.6l-2.7-1.8l-2.7,1.8c-1.9,1.3-45.8,31.8-46.6,114.6c-6.6,6.5-22.6,26.8-21.3,50.5
			c0.4,8.1,2.9,15.7,7.2,22.8c-8.9,7.5-31.6,28.8-33.6,52.3c-0.9,10.4,2.4,19.9,9.6,28.2c-1.2,13.6-0.5,28.8,3.4,45.3l0.9,3.7h13.8
			c3.2,5.8,11.9,19.9,24.7,30.7c-5.6,5.6-12.6,12.4-12.6,12.4l-8.4,8.2h61h9.6h61l-8.4-8.2c0,0-7-6.8-12.6-12.4
			c12.7-10.8,21.4-24.9,24.7-30.7h13.8l0.9-3.7c3.9-16.5,4.6-31.7,3.4-45.3C394.7,376.6,398,367.1,397.1,356.7z M333.3,290.3
			c-4.3-1.5-11.5-3.8-17.7-4.7c-0.8-8-7.5-14.3-15.6-14.3c-8.2,0-14.9,6.3-15.7,14.3c-6.2,1-13.5,3.3-17.7,4.7
			c-5.1-7.5-16.9-29.7,0.6-52.2h65.5C350.1,260.5,338.4,282.7,333.3,290.3z M306.2,287.1c0,3.4-2.8,6.2-6.2,6.2
			c-3.4,0-6.2-2.8-6.2-6.2c0-3.4,2.8-6.2,6.2-6.2C303.4,280.9,306.2,283.7,306.2,287.1z M300,126.6c9.1,7.8,38.3,37.6,39.7,101.9
			h-79.4C261.7,164.5,290.9,134.4,300,126.6z M252.9,243.2c-13.3,29.1,8,55.6,8.3,55.9l2.2,2.6l3.2-1.2c3.7-1.4,13.3-4.6,19.8-5.5
			c2.7,4.7,7.8,8,13.6,8c5.8,0,10.9-3.2,13.6-8c6.5,0.9,16.1,4.2,19.8,5.6l3.2,1.2l2.2-2.6c0.3-0.3,21.6-26.8,8.3-55.9
			c6.2,7.9,14.7,22.1,13.9,37.9c-0.7,14-8.9,26.3-24.4,36.6c-8.2,5.5-15.8,8.9-22,11.6c-5.8,2.6-11.1,5-14.7,8.4
			c-3.6-3.4-9-5.8-14.7-8.4c-6.1-2.7-13.8-6.2-22-11.6c-15.4-10.3-23.6-22.6-24.4-36.6C238.2,265.3,246.7,251.1,252.9,243.2z
			 M212.5,357.5c1.5-18.1,18.9-35.8,28-43.8c-7.5,9.6-20.3,29.2-25.9,56.7C212.9,366.4,212.1,362.1,212.5,357.5z M295.2,475.7h-37.5
			c2.9-2.8,5.9-5.8,8.1-8.1l4-4l-4.5-3.3c-10.7-7.8-18.9-19.2-23.5-26.4h53.5V475.7z M334.8,460.4l-4.5,3.3l4,4
			c2.2,2.2,5.2,5.2,8.1,8.1h-37.6v-41.8h53.5C353.7,441.2,345.5,452.6,334.8,460.4z M375.6,424.3h-1.2h-69.6h-9.6h-69.6h-1.2
			c-11.4-54.8,13.9-92.8,24.4-105.7c2.8,2.5,5.8,4.9,9.2,7.1c8.9,5.9,16.9,9.5,23.4,12.4c10.4,4.7,13.8,6.5,13.8,10.8h9.6
			c0-4.3,3.4-6.1,13.8-10.8c6.5-2.9,14.5-6.5,23.4-12.4c3.4-2.3,6.4-4.7,9.2-7.1C361.7,331.6,387,369.5,375.6,424.3z M359.6,313.8
			c9,8.1,26.4,25.7,27.9,43.8c0.4,4.6-0.4,8.8-2.1,12.9C379.9,342.9,367.1,323.3,359.6,313.8z"/>
		<rect x="278.7" y="251.8" class="st1" width="9.6" height="11"/>
		<path class="st1" d="M300,352.6c-7.6,0-13.7,6.1-13.7,13.7S292.4,380,300,380c7.6,0,13.7-6.1,13.7-13.7S307.6,352.6,300,352.6z
			 M300,370.4c-2.3,0-4.1-1.8-4.1-4.1c0-2.3,1.8-4.1,4.1-4.1c2.3,0,4.1,1.8,4.1,4.1C304.1,368.5,302.3,370.4,300,370.4z"/>
		<path class="st1" d="M300,380.9c-7.6,0-13.7,6.2-13.7,13.7c0,7.6,6.1,13.7,13.7,13.7c7.6,0,13.7-6.1,13.7-13.7
			C313.7,387,307.6,380.9,300,380.9z M300,398.7c-2.3,0-4.1-1.8-4.1-4.1c0-2.3,1.8-4.1,4.1-4.1c2.3,0,4.1,1.8,4.1,4.1
			C304.1,396.8,302.3,398.7,300,398.7z"/>
		<path class="st1" d="M311.2,313.6l-3.6-8.9c-3,1.2-6.6,2.3-7.7,2.3c-1.1,0-4.6-1.1-7.7-2.3l-3.6,8.9c1.7,0.7,7.6,2.9,11.2,2.9
			C303.6,316.5,309.5,314.3,311.2,313.6z"/>
	</g>
</g>
</svg>
