<?xml version="1.0" encoding="UTF-8" standalone="no"?>
<!-- Created with Inkscape (http://www.inkscape.org/) -->

<svg
   xmlns:dc="http://purl.org/dc/elements/1.1/"
   xmlns:cc="http://creativecommons.org/ns#"
   xmlns:rdf="http://www.w3.org/1999/02/22-rdf-syntax-ns#"
   xmlns:svg="http://www.w3.org/2000/svg"
   xmlns="http://www.w3.org/2000/svg"
   xmlns:sodipodi="http://sodipodi.sourceforge.net/DTD/sodipodi-0.dtd"
   xmlns:inkscape="http://www.inkscape.org/namespaces/inkscape"
   width="48pt"
   height="48pt"
   viewBox="0 0 16.933334 16.933333"
   version="1.1"
   id="svg979"
   inkscape:version="0.92.4 (5da689c313, 2019-01-14)"
   sodipodi:docname="21 - Gardening Tool.svg"
   inkscape:export-filename="E:\TR Design Studio Creative\Project Design\TR Creative Design\Icon Design\Project Hiring\Icon Icons\Project - 001\001 - Agriculture And Farming\Line\Export\21 - Gardening Tool.png"
   inkscape:export-xdpi="768"
   inkscape:export-ydpi="768">
  <defs
     id="defs973" />
  <sodipodi:namedview
     id="base"
     pagecolor="#ffffff"
     bordercolor="#666666"
     borderopacity="1.0"
     inkscape:pageopacity="0.0"
     inkscape:pageshadow="2"
     inkscape:zoom="8.546875"
     inkscape:cx="32"
     inkscape:cy="32"
     inkscape:document-units="pt"
     inkscape:current-layer="layer1"
     showgrid="false"
     units="pt"
     inkscape:window-width="1366"
     inkscape:window-height="716"
     inkscape:window-x="-8"
     inkscape:window-y="-8"
     inkscape:window-maximized="1"
     inkscape:snap-bbox="true"
     inkscape:bbox-nodes="true"
     inkscape:snap-nodes="false"
     showguides="false">
    <inkscape:grid
       type="xygrid"
       id="grid1526" />
    <sodipodi:guide
       position="0.97013909,15.963209"
       orientation="56.666615,0"
       id="guide1528"
       inkscape:locked="false" />
    <sodipodi:guide
       position="0.97013909,0.97016731"
       orientation="0,56.666667"
       id="guide1530"
       inkscape:locked="false" />
    <sodipodi:guide
       position="15.963195,0.97016731"
       orientation="-56.666615,0"
       id="guide1532"
       inkscape:locked="false" />
    <sodipodi:guide
       position="15.963195,15.963209"
       orientation="0,-56.666667"
       id="guide1534"
       inkscape:locked="false" />
  </sodipodi:namedview>
  <metadata
     id="metadata976">
    <rdf:RDF>
      <cc:Work
         rdf:about="">
        <dc:format>image/svg+xml</dc:format>
        <dc:type
           rdf:resource="http://purl.org/dc/dcmitype/StillImage" />
        <dc:title></dc:title>
      </cc:Work>
    </rdf:RDF>
  </metadata>
  <g
     inkscape:label="Layer 1"
     inkscape:groupmode="layer"
     id="layer1"
     transform="translate(0,-280.06668)">
    <path
       style="color:#000000;font-style:normal;font-variant:normal;font-weight:normal;font-stretch:normal;font-size:medium;line-height:normal;font-family:sans-serif;font-variant-ligatures:normal;font-variant-position:normal;font-variant-caps:normal;font-variant-numeric:normal;font-variant-alternates:normal;font-feature-settings:normal;text-indent:0;text-align:start;text-decoration:none;text-decoration-line:none;text-decoration-style:solid;text-decoration-color:#000000;letter-spacing:normal;word-spacing:normal;text-transform:none;writing-mode:lr-tb;direction:ltr;text-orientation:mixed;dominant-baseline:auto;baseline-shift:baseline;text-anchor:start;white-space:normal;shape-padding:0;clip-rule:nonzero;display:inline;overflow:visible;visibility:visible;opacity:1;isolation:auto;mix-blend-mode:normal;color-interpolation:sRGB;color-interpolation-filters:linearRGB;solid-color:#000000;solid-opacity:1;vector-effect:none;fill:#000000;fill-opacity:1;fill-rule:nonzero;stroke:none;stroke-width:0.529167;stroke-linecap:round;stroke-linejoin:round;stroke-miterlimit:4;stroke-dasharray:none;stroke-dashoffset:0;stroke-opacity:1;color-rendering:auto;image-rendering:auto;shape-rendering:auto;text-rendering:auto;enable-background:accumulate"
       d="m 2.2719237,281.03682 c -0.1802001,0.001 -0.324754,0.14946 -0.3226523,0.32965 v 3.5842 c 0,0.4905 0.083818,0.96296 0.344291,1.33962 0.208209,0.30107 0.5432953,0.51142 0.9596872,0.58485 v 1.33452 c 6.517e-4,0.18001 0.1470986,0.32526 0.3271098,0.32457 h 0.3245617 v 5.59966 c -0.3774449,0.13606 -0.6516715,0.49724 -0.6516715,0.91896 v 0.59121 c 0,0.22331 0.1053294,0.38527 0.3801395,0.38527 h 2.5519584 c 0.1801969,9.8e-4 0.3270283,-0.14437 0.3277451,-0.32457 v -0.65167 c 0,-0.421 -0.2752269,-0.78108 -0.6523101,-0.91768 v -5.60094 h 0.324565 c 0.180008,6.6e-4 0.3264678,-0.14455 0.3271065,-0.32456 v -1.33453 c 0.4163952,-0.0734 0.7514815,-0.28378 0.9596905,-0.58484 0.260473,-0.37666 0.344291,-0.84913 0.344291,-1.33962 v -3.5842 c 0,-0.43487 -0.65231,-0.43487 -0.65231,0 v 3.5842 c 0,0.41208 -0.081651,0.75693 -0.2284663,0.96923 -0.1468183,0.21231 -0.3422937,0.33411 -0.7503117,0.33411 H 6.0771573 v -4.88754 c 0.00196,-0.18284 -0.1468119,-0.33171 -0.3296514,-0.32965 -0.1800177,0.002 -0.3240501,0.14964 -0.3220201,0.32965 v 4.88754 H 4.34043 v -4.88754 c 0.00196,-0.1838 -0.1477862,-0.33309 -0.3315641,-0.32965 -0.1790694,0.004 -0.3221505,0.15056 -0.3201074,0.32965 v 4.88754 H 3.5805707 c -0.4080212,0 -0.6034934,-0.1218 -0.750315,-0.33411 -0.1468183,-0.2123 -0.2284662,-0.55715 -0.2284662,-0.96923 v -3.5842 c 0.00228,-0.18294 -0.146714,-0.33179 -0.3296545,-0.32965 z m 8.4399073,0.46711 -0.536482,0.50213 c -0.6312021,0.58912 -1.3828921,1.42566 -1.3828921,2.4323 v 1.81565 c 0,0.5359 0.4409666,0.97877 0.9768718,0.97877 H 10.421 v 0.97751 c 6.52e-4,0.17995 0.147161,0.32525 0.327107,0.32457 h 0.163556 v 5.6003 c -0.376167,0.13675 -0.649762,0.49688 -0.649762,0.91768 v 0.59122 c 0,0.19634 0.153602,0.38581 0.380677,0.38581 h 2.551959 c 0.1792,-6.5e-4 0.324197,-0.14601 0.324562,-0.3252 v -0.65168 c 0,-0.42262 -0.275527,-0.78358 -0.654217,-0.91895 V 288.535 h 0.163554 c 0.179949,6.6e-4 0.32639,-0.14461 0.32711,-0.32456 v -0.97751 h 0.649123 c 0.535908,0 0.979416,-0.44287 0.979416,-0.97877 v -1.81565 c 0,-1.00664 -0.752324,-1.84318 -1.383527,-2.43231 l -0.535847,-0.50212 c -0.329727,-0.30774 -0.75399,-0.46202 -1.176756,-0.4621 -0.422765,-7e-5 -0.846397,0.15421 -1.176124,0.46195 z m 1.907286,0.47603 0.536484,0.50275 c 0.584317,0.54536 1.176064,1.29962 1.176064,1.95565 v 1.81565 c 0,0.18615 -0.140956,0.3271 -0.327109,0.3271 h -0.976234 v -0.97814 c -6.52e-4,-0.17895 -0.14561,-0.32384 -0.324562,-0.32456 h -1.570632 c -0.257453,0 -0.385083,0.16063 -0.385083,0.38002 v 0.92278 H 9.7692667 c -0.1861532,0 -0.3252003,-0.14096 -0.3252003,-0.3271 v -1.81565 c 0,-0.65603 0.5923826,-1.41029 1.1767006,-1.95565 l 0.535847,-0.50275 c 0.206798,-0.19303 0.469017,-0.28957 0.73125,-0.28961 0.262236,-5e-5 0.524455,0.0965 0.731253,0.28951 z m -1.219339,3.94949 h 0.976872 v 0.97623 c -6.52e-4,0.18094 0.146167,0.32779 0.32711,0.3271 v 0.65232 h -1.631088 v -0.65232 c 0.18094,6.6e-4 0.327794,-0.14616 0.327106,-0.3271 z m -7.4948569,0.97623 h 1.9556497 v 0.97942 H 3.9049211 Z m 0.6516715,1.62853 h 0.6523067 v 5.53986 l -0.6523067,-6.6e-4 z m 7.0041944,6.6e-4 h 0.65231 v 5.53921 l -0.65231,-6.5e-4 z m -7.3313042,6.19088 h 1.3039815 c 0.1861434,0 0.3271065,0.14097 0.3271065,0.3271 v 0.32457 H 3.9049211 v -0.32457 c 0,-0.18613 0.138415,-0.3271 0.3245617,-0.3271 z m 7.0092872,0 h 1.303342 c 0.186147,0 0.325201,0.14097 0.325201,0.3271 v 0.32457 h -1.953105 v -0.32457 c 0,-0.18613 0.138415,-0.3271 0.324562,-0.3271 z"
       id="rect1344"
       inkscape:connector-curvature="0"
       sodipodi:nodetypes="ccsccccccsccccsccccccsssscsccccccccccscscccccssscccccsccccscccccsssccccccsssccccccsssccccccccccccccccccccccccccccsssccsssssccss" />
  </g>
</svg>
