<?xml version="1.0" encoding="utf-8"?>
<!-- Generator: Adobe Illustrator 19.2.1, SVG Export Plug-In . SVG Version: 6.00 Build 0)  -->
<svg version="1.1" id="Layer_1" xmlns="http://www.w3.org/2000/svg" xmlns:xlink="http://www.w3.org/1999/xlink" x="0px" y="0px"
	 viewBox="0 0 600 600" style="enable-background:new 0 0 600 600;" xml:space="preserve">
<style type="text/css">
	.st0{fill:#65BC46;}
	.st1{fill:#FFFFFF;}
</style>
<g>
	<rect x="0" class="st0" width="600" height="600"/>
	<g>
		<path class="st1" d="M224.6,470.5c3.9,7.7,9.3,12.6,15.9,14.5c3.8,1.1,7.3,1.7,10.4,1.7c5.4,0,9.7-1.7,12.9-5
			c10.7-11.1,3.5-35.8,1.1-43.1c-13.1-39.1,0.5-124.3,0.6-125.2c1.2-7.2,6.6-19.1,10.8-23.4c4.9-5.2,10.8-8.9,16.5-12.6
			c2.6-1.6,5-3.3,7.4-5c9.9,10.2,20.9,22.3,25.2,29c-2.7,31.4-8.8,110,21.9,158.5c10.3,16.3,19.2,24.6,26.5,24.6
			c1.5,0,2.9-0.3,4.3-1c7.5-3.8,8-16.8,1.3-33.9c-29.1-74.4-10.5-168-10.3-168.9l0.5-2.5l-34.7-35.2c1.2-2.2,2.2-4.6,2.9-7.1
			c39-49.5,18.4-82.3,17.5-83.7l-4.5-6.9l-3.8,7.3c-0.1,0.2-9.2,17.6-27.1,40.4c-1.8-0.9-3.6-1.8-5.6-2.4
			c-0.7-12.1-5.6-50.3-41.3-72.6l-7.3-4.6v112.1c0,6.8,1.9,13.1,5.1,18.6c-11.8,9.9-24.1,18.8-36.6,26.5l-2.8,1.7l0.6,3.3
			c1.1,6,3.4,23.6,0.2,32.9C221.7,339.1,205.9,434.2,224.6,470.5z M359.2,281.2c-2.9,16-16.5,100.8,11.2,171.8
			c5.4,13.7,4.2,20.9,3.5,21.8c-1.5,0-7.9-3.3-18.5-20.1c-29.4-46.6-22.8-124.7-20.3-154.1l0.1-1.5l-0.7-1.3
			c-4.7-8.3-20.1-24.7-30.9-35.8c10.1-0.3,19.1-4.6,25.6-11.3L359.2,281.2z M350.6,165.7c2.5,9.9,3.3,28.1-12,52.4
			c-1.5-7.6-5.3-14.4-10.8-19.6C338.5,184.8,346.1,173.2,350.6,165.7z M275.4,131.2c29.8,24.1,29.5,62.4,29.5,62.8l-0.1,3.9l3.8,0.9
			c12.5,2.8,21.2,13.7,21.2,26.5c0,15-12.2,27.2-27.2,27.2c-15,0-27.2-12.2-27.2-27.2V131.2z M241.3,311.3
			c3.7-10.7,1.8-27.4,0.7-34.5c11.9-7.5,23.6-16,34.8-25.4c2.7,2.7,5.9,4.9,9.3,6.7c1.9,1.9,4.5,4.4,7.3,7.3
			c-1.8,1.3-3.8,2.5-5.8,3.8c-5.9,3.8-12.6,8-18.3,14.1c-5.5,5.7-11.8,19.3-13.3,28.5c-0.6,3.6-14.1,88.5-0.2,129.8
			c4.1,12.4,6.3,28.1,1.1,33.4c-2.4,2.5-7,2.8-13.7,0.8c-4-1.2-7.3-4.4-10.1-9.7C216.7,434.1,230.9,341.7,241.3,311.3z"/>
		<polygon class="st1" points="297.8,236.7 307.4,236.7 307.4,230.1 313.9,230.1 313.9,220.5 307.4,220.5 307.4,214 297.8,214 
			297.8,220.5 291.2,220.5 291.2,230.1 297.8,230.1 		"/>
	</g>
</g>
</svg>
